LWalking1_XZ.mot
version=1
datacolumns 20
datarows 36
range 0.000000 0.350000
inDegrees=yes
endheader
time	pelvis_tilt	pelvis_list	pelvis_rotation	hip_flexion_r	hip_adduction_r	hip_rotation_r	knee_angle_r	ankle_angle_r	hip_flexion_l	hip_adduction_l	hip_rotation_l	knee_angle_l	ankle_angle_l	pelvis_tx	pelvis_ty	pelvis_tz	lumbar_bending	lumbar_rotation	lumbar_extension
0.000000	13.724145	-2.897747	178.400060	6.349505	-3.328164	-0.877545	-0.513130	2.750234	6.143125	4.068829	-0.740938	-2.124655	2.864648	2.427930	0.956072	0.068718	-0.000000	-0.000000	0.000000
0.010000	14.167943	-2.962232	178.179424	6.754597	-3.386052	-1.859509	-0.471770	2.211125	6.505854	4.143814	-0.866620	-2.195049	1.753584	2.426188	0.955766	0.068445	-0.000000	-0.000000	0.000000
0.020000	14.272316	-2.777328	177.952508	6.607056	-3.144636	-2.277080	-0.237457	2.142509	6.413223	3.880583	-1.069989	-2.260708	1.817784	2.423768	0.955457	0.067266	-0.000000	-0.000000	0.000000
0.030000	14.310906	-2.659229	177.951762	6.523211	-2.980918	-2.259592	-0.155805	2.313232	6.413556	3.706882	-1.032417	-2.352078	2.217687	2.422777	0.955356	0.066499	-0.000000	-0.000000	0.000000
0.040000	14.404714	-2.534882	177.970849	6.482010	-2.797557	-2.268469	-0.081651	2.516255	6.489660	3.516867	-0.938269	-2.501272	2.668646	2.421552	0.955215	0.065536	-0.000000	-0.000000	0.000000
0.050000	14.562648	-2.421508	178.002661	6.504224	-2.612804	-2.319878	-0.028464	2.735858	6.663536	3.332646	-0.787742	-2.726927	3.134747	2.420107	0.955018	0.064406	-0.000000	-0.000000	0.000000
0.060000	14.771202	-2.334379	178.034405	6.587768	-2.444589	-2.399314	-0.009108	2.978992	6.932569	3.174516	-0.598135	-3.047193	3.619139	2.418485	0.954750	0.063153	-0.000000	-0.000000	0.000000
0.070000	14.993431	-2.285408	178.051016	6.703169	-2.309820	-2.471669	-0.033030	3.268833	7.265448	3.059092	-0.397431	-3.476685	4.148946	2.416743	0.954405	0.061826	-0.000000	-0.000000	0.000000
0.080000	15.179112	-2.281372	178.040895	6.802409	-2.221576	-2.502532	-0.104712	3.625828	7.612159	2.996648	-0.211496	-4.023802	4.749101	2.414931	0.953988	0.060465	-0.000000	-0.000000	0.000000
0.090000	15.286976	-2.322807	177.999429	6.842784	-2.185525	-2.478369	-0.224022	4.051537	7.929140	2.988370	-0.052466	-4.690842	5.426253	2.413086	0.953517	0.059096	-0.000000	-0.000000	0.000000
0.100000	15.305277	-2.404947	177.930703	6.810247	-2.198892	-2.416457	-0.386821	4.518704	8.204773	3.026533	0.090216	-5.477462	6.162767	2.411227	0.953026	0.057721	-0.000000	-0.000000	0.000000
0.110000	15.259832	-2.520303	177.848835	6.729394	-2.252434	-2.362470	-0.585360	4.969112	8.472011	3.098130	0.247896	-6.385502	6.914732	2.409354	0.952559	0.056321	-0.000000	-0.000000	0.000000
0.120000	15.205619	-2.662080	177.776173	6.655302	-2.334761	-2.375683	-0.809165	5.326964	8.801116	3.190487	0.455171	-7.421903	7.619414	2.407461	0.952157	0.054864	-0.000000	-0.000000	0.000000
0.130000	15.200222	-2.827103	177.736347	6.645128	-2.437583	-2.506335	-1.046419	5.526760	9.268631	3.296970	0.728487	-8.596952	8.215428	2.405535	0.951860	0.053321	-0.000000	-0.000000	0.000000
0.140000	15.274216	-3.016710	177.745148	6.726497	-2.559277	-2.777292	-1.286009	5.539111	9.920376	3.420049	1.055802	-9.919316	8.664167	2.403565	0.951690	0.051670	-0.000000	-0.000000	0.000000
0.150000	15.421152	-3.235275	177.804006	6.887212	-2.704787	-3.178986	-1.519148	5.379074	10.756543	3.569255	1.402441	-11.392653	8.959694	2.401547	0.951660	0.049914	-0.000000	-0.000000	0.000000
0.160000	15.606246	-3.487930	177.898895	7.084902	-2.883101	-3.674166	-1.739421	5.099863	11.740048	3.755936	1.721549	-13.016101	9.127474	2.399483	0.951769	0.048078	-0.000000	-0.000000	0.000000
0.170000	15.784957	-3.779135	178.005606	7.267697	-3.104254	-4.210193	-1.942670	4.775152	12.818811	3.988324	1.960573	-14.787260	9.210224	2.397382	0.952009	0.046204	-0.000000	-0.000000	0.000000
0.180000	15.927383	-4.111367	178.100041	7.401616	-3.375597	-4.739130	-2.127447	4.468592	13.955756	4.267957	2.070768	-16.704937	9.239847	2.395254	0.952367	0.044338	-0.000000	-0.000000	0.000000
0.190000	16.031425	-4.483144	178.168333	7.484776	-3.698272	-5.233710	-2.294444	4.209280	15.145040	4.588302	2.019428	-18.769115	9.217543	2.393109	0.952822	0.042514	-0.000000	-0.000000	0.000000
0.200000	16.113164	-4.886900	178.210207	7.535487	-4.064939	-5.688689	-2.444220	3.992253	16.400239	4.935321	1.797564	-20.977301	9.121538	2.390956	0.953339	0.040751	-0.000000	-0.000000	0.000000
0.210000	16.190110	-5.308206	178.234746	7.572172	-4.459231	-6.113858	-2.574913	3.796240	17.732645	5.289241	1.420656	-23.319239	8.929368	2.388805	0.953871	0.039058	-0.000000	-0.000000	0.000000
0.220000	16.274295	-5.727901	178.253792	7.604483	-4.858843	-6.527215	-2.681685	3.602903	19.141394	5.628454	0.921345	-25.773555	8.633048	2.386658	0.954358	0.037444	-0.000000	-0.000000	0.000000
0.230000	16.369627	-6.125512	178.275896	7.630587	-5.240802	-6.945432	-2.758460	3.412775	20.611781	5.933546	0.337241	-28.308528	8.247169	2.384504	0.954745	0.035931	-0.000000	-0.000000	0.000000
0.240000	16.469462	-6.481754	178.303240	7.636524	-5.585017	-7.371449	-2.801406	3.255703	22.116682	6.189046	-0.299116	-30.885856	7.814482	2.382323	0.954987	0.034554	-0.000000	-0.000000	0.000000
0.250000	16.562931	-6.781096	178.335166	7.605163	-5.876228	-7.791801	-2.811565	3.182143	23.627454	6.384610	-0.963933	-33.463268	7.393548	2.380093	0.955070	0.033348	-0.000000	-0.000000	0.000000
0.260000	16.646219	-7.015025	178.374144	7.529346	-6.105638	-8.185847	-2.794958	3.236926	25.127096	6.516360	-1.638821	-35.993231	7.029822	2.377785	0.955006	0.032329	-0.000000	-0.000000	0.000000
0.270000	16.724520	-7.184271	178.426046	7.414549	-6.271687	-8.531911	-2.761963	3.443429	26.609673	6.586848	-2.303187	-38.419887	6.742459	2.375369	0.954838	0.031472	-0.000000	-0.000000	0.000000
0.280000	16.801381	-7.298411	178.495204	7.267768	-6.379583	-8.805488	-2.726160	3.803226	28.064849	6.604204	-2.928740	-40.677697	6.533503	2.372820	0.954619	0.030717	-0.000000	-0.000000	0.000000
0.290000	16.871230	-7.372506	178.582847	7.088414	-6.439541	-8.980695	-2.701346	4.293804	29.468194	6.581981	-3.483756	-42.694884	6.398075	2.370123	0.954404	0.029982	-0.000000	-0.000000	0.000000
0.300000	16.927057	-7.422070	178.691436	6.874271	-6.463799	-9.038788	-2.698064	4.866889	30.792147	6.538073	-3.946766	-44.403546	6.328056	2.367272	0.954231	0.029193	-0.000000	-0.000000	0.000000
0.310000	16.969823	-7.459604	178.826291	6.630643	-6.463886	-8.974492	-2.720980	5.458118	32.021798	6.490843	-4.317223	-45.752489	6.311980	2.364264	0.954121	0.028298	-0.000000	-0.000000	0.000000
0.320000	17.008608	-7.494707	178.990442	6.371377	-6.449827	-8.797638	-2.766537	6.000402	33.159842	6.454406	-4.615300	-46.715354	6.330779	2.361103	0.954068	0.027277	-0.000000	-0.000000	0.000000
0.330000	17.058359	-7.536320	179.179814	6.116846	-6.431026	-8.536251	-2.821014	6.431355	34.224993	6.436529	-4.875075	-47.290691	6.351186	2.357802	0.954051	0.026137	-0.000000	-0.000000	0.000000
0.340000	17.138489	-7.594920	179.383149	5.891548	-6.417858	-8.237691	-2.861656	6.702218	35.247182	6.440336	-5.135482	-47.495558	6.323962	2.354365	0.954035	0.024907	-0.000000	-0.000000	0.000000
0.350000	17.265063	-7.682405	179.583182	5.715411	-6.422484	-7.958535	-2.862851	6.792747	36.254190	6.466823	-5.427822	-47.356892	6.194941	2.350792	0.953973	0.023629	-0.000000	-0.000000	0.000000
